<svg width="995" height="223" viewBox="0 0 995 223" fill="none" xmlns="http://www.w3.org/2000/svg">
<circle cx="111.5" cy="111.5" r="99.1111" stroke="#A855F7" stroke-width="24.7778"/>
<path d="M52.1905 132.852C61.6799 151.831 71.1692 161.32 90.1479 170.809" stroke="#A855F7" stroke-width="24.7778" stroke-linecap="round" stroke-linejoin="round"/>
<path d="M331.328 142.423H276.916V219.135H247.778V4.1627H331.328C373.55 4.1627 400.607 31.8147 400.607 73.144C400.607 113.284 373.252 142.423 331.328 142.423ZM326.274 30.328H276.916V116.257H325.084C353.926 116.257 369.982 99.3094 369.982 72.8467C369.982 45.7894 353.628 30.328 326.274 30.328Z" fill="#1C1917"/>
<path d="M497.24 72.5494V98.12H484.752C458.29 98.12 441.936 114.176 441.936 142.125V219.135H413.987V74.036H440.152L441.936 96.0387C447.883 80.8747 462.452 70.7654 482.374 70.7654C487.428 70.7654 491.591 71.36 497.24 72.5494Z" fill="#1C1917"/>
<path d="M566.099 222.703C523.283 222.703 493.847 191.78 493.847 146.585C493.847 101.093 522.688 69.576 564.909 69.576C606.239 69.576 633.296 98.12 633.296 141.233V151.64L520.904 151.937C522.985 182.563 539.041 199.511 566.693 199.511C588.399 199.511 602.671 190.591 607.428 173.94H633.593C626.457 205.16 602.076 222.703 566.099 222.703ZM564.909 93.0654C540.528 93.0654 525.067 107.635 521.499 133.205H605.347C605.347 109.121 589.588 93.0654 564.909 93.0654Z" fill="#1C1917"/>
<path d="M707.924 222.703C665.703 222.703 640.132 191.185 640.132 146.883C640.132 102.283 666 69.576 709.114 69.576C731.414 69.576 750.146 79.388 759.958 97.228V0.297363H787.61V219.135H762.634L760.255 192.672C750.74 212.593 731.116 222.703 707.924 222.703ZM713.574 197.429C742.118 197.429 759.66 176.319 759.66 145.991C759.66 116.257 742.118 94.8494 713.574 94.8494C685.03 94.8494 668.379 116.257 668.379 145.991C668.379 176.021 685.03 197.429 713.574 197.429Z" fill="#1C1917"/>
<path d="M826.742 39.248C816.632 39.248 808.307 30.9227 808.307 20.8134C808.307 10.4067 816.632 2.37871 826.742 2.37871C836.851 2.37871 845.176 10.4067 845.176 20.8134C845.176 30.9227 836.851 39.248 826.742 39.248ZM813.064 219.135V73.7387H841.013V219.135H813.064Z" fill="#1C1917"/>
<path d="M895.268 219.135H867.318V0.297363H895.268V142.125L959.789 73.7387H994.874L939.273 131.719L994.577 219.135H962.465L919.946 151.937L895.268 177.805V219.135Z" fill="#1C1917"/>
</svg>
